<?xml version="1.0" encoding="UTF-8" standalone="no"?>
<svg
   xmlns:dc="http://purl.org/dc/elements/1.1/"
   xmlns:cc="http://creativecommons.org/ns#"
   xmlns:rdf="http://www.w3.org/1999/02/22-rdf-syntax-ns#"
   xmlns:svg="http://www.w3.org/2000/svg"
   xmlns="http://www.w3.org/2000/svg"
   xmlns:sodipodi="http://sodipodi.sourceforge.net/DTD/sodipodi-0.dtd"
   xmlns:inkscape="http://www.inkscape.org/namespaces/inkscape"
   version="1.1"
   id="svg26"
   width="428.79999"
   height="475.20001"
   viewBox="0 0 428.79999 475.20001"
   sodipodi:docname="turtle logo.svg"
   inkscape:version="1.0.2-2 (e86c870879, 2021-01-15)">
  <metadata
     id="metadata32">
    <rdf:RDF>
      <cc:Work
         rdf:about="">
        <dc:format>image/svg+xml</dc:format>
        <dc:type
           rdf:resource="http://purl.org/dc/dcmitype/StillImage" />
        <dc:title></dc:title>
      </cc:Work>
    </rdf:RDF>
  </metadata>
  <defs
     id="defs30" />
  <sodipodi:namedview
     pagecolor="#ffffff"
     bordercolor="#666666"
     borderopacity="1"
     objecttolerance="10"
     gridtolerance="10"
     guidetolerance="10"
     inkscape:pageopacity="0"
     inkscape:pageshadow="2"
     inkscape:window-width="1920"
     inkscape:window-height="1001"
     id="namedview28"
     showgrid="false"
     inkscape:zoom="1.746633"
     inkscape:cx="127.37541"
     inkscape:cy="306.30362"
     inkscape:window-x="-9"
     inkscape:window-y="-9"
     inkscape:window-maximized="1"
     inkscape:current-layer="g34" />
  <g
     inkscape:groupmode="layer"
     inkscape:label="Image"
     id="g34">
    <path
       style="fill:#000000;stroke-width:0.8"
       d="m 194.29487,456.67529 c -0.21999,-0.57327 -0.29869,-5.70327 -0.1749,-11.4 l 0.22508,-10.35769 4.07106,-0.23734 c 5.51665,-0.3216 6.05179,0.49188 5.76255,8.7598 l -0.23361,6.67754 -3,0.2483 c -2.97889,0.24654 -3,0.27327 -3,3.8 0,3.03666 -0.23566,3.5517 -1.6251,3.5517 -0.89382,0 -1.8051,-0.46904 -2.02508,-1.04231 z m 7.16459,-10.62312 c 1.30485,-3.40037 0.20745,-7.53457 -2,-7.53457 -1.27699,0 -1.51441,0.60618 -1.51441,3.86666 0,2.12668 0.24,4.10668 0.53334,4.4 0.94565,0.94567 2.48205,0.56836 2.98107,-0.73209 z m 21.79907,2.26543 c -0.27273,-1.65 -0.49983,-5.43 -0.50467,-8.4 l -0.009,-5.4 h 4.27601 c 6.1297,0 6.92399,1.13816 6.92399,9.92165 0,6.23097 -0.15303,6.96647 -1.4,6.72853 -1.15057,-0.21956 -1.44162,-1.28651 -1.63363,-5.98862 -0.1516,-3.71258 -0.63086,-6.05114 -1.36496,-6.66039 -2.06042,-1.70999 -2.80141,-0.005 -2.80141,6.44605 0,5.67121 -0.16042,6.35278 -1.49533,6.35278 -1.10644,0 -1.62428,-0.78019 -1.99119,-3 z m 15.30355,1.21702 c -1.35476,-1.35475 -1.54144,-2.41048 -1.2714,-7.18968 0.34129,-6.04006 1.53032,-7.82734 5.20727,-7.82734 1.62162,0 1.8471,-0.39064 1.8471,-3.2 0,-2.88927 0.19634,-3.2 2.02197,-3.2 h 2.02196 l -0.22196,11.33918 -0.22197,11.33917 -3.89753,0.1633 c -2.96915,0.1244 -4.27576,-0.21494 -5.48544,-1.42463 z m 5.78297,-7.02939 c 0,-3.93492 -1.32488,-5.54275 -3.10251,-3.76512 -1.18485,1.18485 -1.1537,7.20128 0.0434,8.39846 1.64557,1.64557 3.05903,-0.49532 3.05903,-4.63334 z m -33.8,7.14829 c -2.07857,-1.21066 -2.02973,-11.91804 0.063,-13.81193 1.83856,-1.66387 4.84855,-1.69693 7.159,-0.0786 1.54043,1.07895 1.77801,1.97103 1.77801,6.67602 0,4.24513 -0.31938,5.71967 -1.46299,6.75463 -1.63138,1.47638 -5.39731,1.70618 -7.53701,0.45991 z m 5.63853,-6.41318 c 0.16398,-2.5182 -0.13758,-3.97501 -0.96496,-4.66168 -1.90281,-1.5792 -2.87357,-0.27763 -2.87357,3.85282 0,4.15075 0.45961,5.06698 2.36099,4.70658 0.85957,-0.16293 1.31206,-1.3566 1.47754,-3.89772 z M 196.34505,379.97751 C 167.00943,375.82418 139.91303,365.92201 117.29531,351.08938 99.293774,339.28403 82.201943,323.18893 69.320195,305.91201 60.710131,294.36424 57.156003,288.44226 50.308035,274.2334 38.564081,249.86586 33.414505,228.30332 32.581012,200.00598 31.608517,166.98947 37.491009,139.63533 51.653398,111.31759 61.79079,91.047848 73.759623,74.592965 89.004727,59.966571 117.21778,32.898519 148.85025,16.801974 187.94505,9.6196395 c 11.34979,-2.085136 36.55701,-2.8911664 49.29516,-1.5762704 43.36256,4.4761019 85.5933,24.9339749 115.11264,55.7641219 25.45462,26.584933 41.93176,57.530759 49.15061,92.310099 3.14021,15.1291 3.86688,24.23769 3.43776,43.0914 -0.32332,14.20504 -0.76769,19.24512 -2.47826,28.10861 -5.94991,30.83009 -16.77658,55.4636 -35.0795,79.81499 -7.04912,9.37859 -22.06938,25.04506 -30.60876,31.92559 -26.92775,21.69682 -58.06627,35.33649 -92.00502,40.30117 -11.39613,1.66707 -38.56624,2.0139 -48.42463,0.61816 z m 47.62704,-8.19925 c 55.75552,-8.40661 103.49153,-41.266 131.20319,-90.31457 11.4171,-20.20783 18.76043,-43.59494 21.56166,-68.66979 3.65672,-32.73258 -2.26268,-66.42671 -17.0315,-96.94591 -17.44612,-36.051735 -46.5461,-65.161283 -82.96039,-82.987654 -18.98998,-9.29642 -38.5046,-14.809405 -60.57725,-17.113405 -14.76897,-1.541625 -20.84681,-1.542061 -34.74644,-0.0025 -32.92009,3.646333 -58.9291,13.278062 -85.25847,31.573154 -10.69981,7.434818 -28.508595,24.058551 -36.837406,34.386139 -14.547086,18.038142 -25.618341,39.382526 -32.439445,62.540356 -5.273789,17.90465 -6.946247,30.3012 -6.890488,51.0735 0.04967,18.50468 1.480745,28.97897 6.423197,47.01254 11.402252,41.6035 36.990379,76.57859 74.726302,102.13955 7.8404,5.31079 29.60864,16.14481 38.4,19.11162 11.5025,3.88173 32.89368,8.56345 44,9.62994 6.96308,0.66863 32.48942,-0.23618 40.42704,-1.43298 z M 140.95768,289.7755 138.34505,287.43341 V 271.9755 256.5176 l -3.4,-0.246 c -2.13086,-0.15417 -3.4,-0.63433 -3.4,-1.28634 0,-0.57828 1.51008,-1.35834 3.4,-1.75633 l 3.4,-0.71599 0.61338,-6.77105 c 0.62588,-6.90903 1.31336,-8.65843 2.99433,-7.61953 0.68354,0.42245 0.79257,2.53796 0.39176,7.60204 l -0.55535,7.0167 6.41432,0.29129 c 3.52787,0.16021 6.659,0.53597 6.95804,0.83502 1.404,1.40399 -0.99254,2.25019 -6.37285,2.25019 h -5.86195 l -0.54245,3.61728 c -0.51606,3.44133 0.0686,22.88631 0.79629,26.48064 0.4794,2.3681 4.52925,3.07858 8.0433,1.41106 2.92648,-1.38871 5.3459,-1.02545 4.68261,0.70306 -0.74888,1.95156 -4.95317,3.78796 -8.67224,3.78796 -2.92265,0 -4.19254,-0.47386 -6.27656,-2.3421 z m 28.49822,0.81828 c -1.36903,-0.83482 -3.34903,-2.72347 -4.4,-4.19702 -1.86146,-2.60992 -1.91085,-3.09267 -1.91085,-18.67916 0,-15.46667 0.0534,-16 1.6,-16 1.5267,0 1.62263,0.69793 2.09381,15.23436 0.57739,17.81317 1.14739,19.71454 6.38014,21.28231 4.16946,1.2492 9.53114,-0.0361 13.52605,-3.24247 l 2.8,-2.24732 0.4,-15.51344 c 0.38281,-14.84678 0.46876,-15.51344 2,-15.51344 1.55226,0 1.60639,0.60462 1.81387,20.26132 0.2006,19.00457 0.12616,20.24472 -1.2,19.99345 -0.93706,-0.17753 -1.49841,-1.14248 -1.66456,-2.86133 -0.13788,-1.4264 -0.5517,-2.59344 -0.9196,-2.59344 -0.36791,0 -2.54128,1.26 -4.82971,2.8 -3.53708,2.38028 -4.83827,2.79955 -8.68039,2.797 -3.02579,-0.002 -5.34232,-0.50466 -7.00876,-1.52082 z m 37.69202,-0.22303 c -0.24986,-1.01923 -0.35272,-10.13315 -0.22858,-20.25315 0.19286,-15.72191 0.40037,-18.4 1.42571,-18.4 0.79413,0 1.27807,0.94703 1.43083,2.8 0.42952,5.21014 0.81745,5.32548 4.39928,1.30787 2.98475,-3.3479 3.82704,-3.82587 7.36989,-4.18215 4.64097,-0.4667 6.39544,0.36807 5.65786,2.692 -0.43167,1.36007 -1.22585,1.62597 -4.99066,1.67094 -4.76422,0.0569 -6.17451,0.85535 -9.32953,5.28198 -1.51775,2.12948 -1.73278,3.79699 -2.11365,16.39098 -0.37516,12.40483 -0.58204,14.05054 -1.79543,14.2825 -0.88927,0.17001 -1.53114,-0.38933 -1.82572,-1.59097 z m 33.39713,0.15561 c -1.43,-0.87188 -2.66317,-1.68054 -2.74039,-1.797 -0.0772,-0.11648 -0.34722,-7.41176 -0.6,-16.21176 l -0.45961,-16 -2.8,-0.25704 c -5.70029,-0.52328 -4.88974,-3.30655 0.96998,-3.33072 l 2.96998,-0.0122 0.23002,-7.4 c 0.18471,-5.94221 0.46642,-7.4 1.43002,-7.4 0.9636,0 1.24531,1.45779 1.43003,7.4 l 0.23001,7.4 4.56998,0.0109 c 5.67722,0.0136 8.16998,0.64897 8.16998,2.08242 0,0.85004 -1.48426,1.1067 -6.4,1.1067 h -6.4 v 13.94792 c 0,7.67136 0.34726,14.8613 0.7717,15.97765 1.03314,2.71736 4.2336,3.45436 7.73986,1.78234 3.49767,-1.66792 4.28844,-1.64587 4.28844,0.1196 0,3.74237 -8.73569,5.42514 -13.4,2.58125 z m 21.96099,1.08556 c -0.30854,-0.30855 -0.56099,-13.46099 -0.56099,-29.22766 V 233.7176 h 2.00998 2.00998 l -0.20998,28.98924 c -0.1842,25.4291 -0.36214,29.01852 -1.44899,29.22765 -0.68145,0.13113 -1.49145,-0.014 -1.8,-0.32257 z m 25.43901,-0.76523 c -6.89662,-3.79081 -10.106,-9.2652 -10.6361,-18.1425 -0.46871,-7.84914 1.01119,-12.05374 5.7944,-16.46275 8.05728,-7.42693 19.39992,-6.2653 24.78603,2.53841 1.69279,2.76691 2.37608,4.9223 2.40929,7.6 l 0.0464,3.73775 -14.13478,0.4 c -7.77413,0.22 -14.41596,0.68183 -14.75964,1.02629 -0.98321,0.98551 1.04072,9.17042 2.92036,11.81014 0.93511,1.31324 2.77043,2.94114 4.07848,3.61756 3.59151,1.85725 11.19522,1.62777 15.52564,-0.46855 3.47021,-1.6799 5.96994,-1.69844 5.96994,-0.0442 0,0.43527 -1.61968,1.74059 -3.59929,2.90072 -4.68531,2.74577 -14.64633,3.55086 -18.40071,1.48721 z m 9.4,-23.52029 c 8.9133,-0.008 9.4,-0.093 9.4,-1.6345 0,-3.13173 -2.27942,-7.03469 -5.31187,-9.09529 -6.53042,-4.43753 -15.94643,-1.32157 -19.14587,6.33579 -1.75677,4.20454 -1.04404,5.51064 2.67192,4.89637 1.6422,-0.27146 7.21582,-0.49753 12.38582,-0.50237 z m -98.86666,-59.74214 c -0.29334,-0.29333 -0.53334,-7.33667 -0.53334,-15.65187 v -15.11856 l -12.4,0.56714 -12.4,0.56714 v -2.91526 -2.91526 h 12.44513 12.44514 l -0.24514,-29.4 c -0.26502,-31.78527 -0.21999,-31.45875 -4.7028,-34.10681 -1.22929,-0.72616 -3.94142,-1.29319 -6.18537,-1.29319 -3.2412,0 -4.78225,0.52899 -8.15696,2.8 -2.28843,1.54 -4.29536,2.8 -4.45985,2.8 -0.16448,0 -0.83495,-1.03629 -1.48992,-2.30287 -1.44136,-2.7873 -0.81808,-3.51479 5.94977,-6.94449 9.01732,-4.569646 19.98778,-2.44995 24.05273,4.64743 l 1.94727,3.39993 0.23588,30.16823 0.23589,30.16822 6.56411,0.23178 c 6.50083,0.22954 6.56656,0.25299 6.81726,2.43177 l 0.25313,2.2 h -6.40592 c -4.17531,0 -6.61581,0.33962 -7.0087,0.97532 -0.33153,0.53642 -0.8555,6.79045 -1.16439,13.89784 -0.30889,7.10739 -0.97155,13.6885 -1.47259,14.62468 -0.87779,1.64017 -3.21723,2.27294 -4.32133,1.16883 z m 48.66666,-1.41931 c -4.63958,-1.71166 -8.03557,-5.77119 -9.14985,-10.93758 -0.61947,-2.87218 -0.88648,-13.38282 -0.80048,-31.50978 l 0.12904,-27.2 h -5.88936 c -6.69191,0 -7.88935,-0.49285 -7.88935,-3.24721 0,-1.90135 0.16332,-1.95311 6.2,-1.96503 3.41,-0.006 6.60407,-0.27674 7.09794,-0.6 0.56263,-0.36828 1.16009,-5.96493 1.6,-14.98776 l 0.70206,-14.4 h 2.73159 2.7316 l -0.18925,15 -0.18924,15 h 12.45765 12.45765 v 2.3067 c 0,3.12183 -1.37779,3.39021 -14.2,2.76596 l -10.6,-0.51606 0.0584,25.9217 c 0.0322,14.25694 0.33516,27.87075 0.67341,30.25292 1.39757,9.84241 10.78321,11.92461 21.05707,4.67151 1.15246,-0.81361 1.68206,-0.68735 3.11116,0.74175 0.94725,0.94726 1.53065,2.22164 1.29645,2.83196 -0.2342,0.61032 -2.66916,2.30536 -5.41102,3.76676 -5.9461,3.16924 -12.89493,3.9822 -17.98547,2.10416 z"
       id="path40" />
    <path
       style="fill:#000000;stroke-width:0.8"
       d="m 193.14981,454.9577 c -0.21998,-0.57327 -0.29869,-5.70327 -0.17489,-11.4 l 0.22508,-10.35769 4.07105,-0.23734 c 5.51665,-0.3216 6.05179,0.49188 5.76255,8.7598 l -0.2336,6.67754 -3,0.2483 c -2.9789,0.24654 -3,0.27327 -3,3.8 0,3.03666 -0.23567,3.5517 -1.62511,3.5517 -0.89381,0 -1.80509,-0.46904 -2.02508,-1.04231 z m 7.16459,-10.62312 c 1.30485,-3.40037 0.20745,-7.53457 -2,-7.53457 -1.27699,0 -1.5144,0.60618 -1.5144,3.86666 0,2.12668 0.24,4.10668 0.53333,4.4 0.94566,0.94567 2.48205,0.56836 2.98107,-0.73209 z m 21.79907,2.26543 c -0.27272,-1.65 -0.49983,-5.43 -0.50467,-8.4 l -0.009,-5.4 h 4.27601 c 6.12971,0 6.92399,1.13816 6.92399,9.92165 0,6.23097 -0.15303,6.96647 -1.4,6.72853 -1.15056,-0.21956 -1.44162,-1.28651 -1.63363,-5.98862 -0.1516,-3.71258 -0.63086,-6.05114 -1.36496,-6.66039 -2.06041,-1.70999 -2.80141,-0.005 -2.80141,6.44605 0,5.67121 -0.16042,6.35278 -1.49532,6.35278 -1.10644,0 -1.62428,-0.78019 -1.9912,-3 z m 15.30355,1.21702 c -1.35475,-1.35475 -1.54144,-2.41048 -1.27139,-7.18968 0.34128,-6.04006 1.53031,-7.82734 5.20727,-7.82734 1.62161,0 1.84709,-0.39064 1.84709,-3.2 0,-2.88927 0.19634,-3.2 2.02197,-3.2 h 2.02196 l -0.22196,11.33918 -0.22197,11.33917 -3.89752,0.1633 c -2.96916,0.1244 -4.27576,-0.21494 -5.48545,-1.42463 z m 5.78297,-7.02939 c 0,-3.93492 -1.32488,-5.54275 -3.10251,-3.76512 -1.18485,1.18485 -1.15369,7.20128 0.0434,8.39846 1.64557,1.64557 3.05903,-0.49532 3.05903,-4.63334 z M 209.4,447.93593 c -2.07857,-1.21066 -2.02973,-11.91804 0.063,-13.81193 1.83856,-1.66387 4.84855,-1.69693 7.15899,-0.0786 1.54043,1.07895 1.77801,1.97103 1.77801,6.67602 0,4.24513 -0.31937,5.71967 -1.46299,6.75463 -1.63138,1.47638 -5.39731,1.70618 -7.53701,0.45991 z m 5.63852,-6.41318 c 0.16399,-2.5182 -0.13757,-3.97501 -0.96496,-4.66168 -1.9028,-1.5792 -2.87356,-0.27763 -2.87356,3.85282 0,4.15075 0.4596,5.06698 2.36099,4.70658 0.85956,-0.16293 1.31205,-1.3566 1.47753,-3.89772 z M 195.2,378.25992 C 165.86437,374.10659 138.76797,364.20442 116.15025,349.37179 98.148718,337.56644 81.056886,321.47134 68.175138,304.19442 59.565075,292.64665 56.010947,286.72467 49.162979,272.51581 37.419024,248.14827 32.269448,226.58572 31.435955,198.28839 30.46346,165.27188 36.345952,137.91774 50.508341,109.6 60.645733,89.330258 72.614566,72.875375 87.85967,58.24898 116.07273,31.180929 147.70519,15.084384 186.8,7.9020492 198.14979,5.8169132 223.357,5.0108828 236.09515,6.3257788 279.45771,10.80188 321.68845,31.259753 351.20779,62.089901 376.66242,88.674834 393.13955,119.62066 400.3584,154.4 c 3.14021,15.1291 3.86689,24.23769 3.43776,43.0914 -0.32332,14.20504 -0.76769,19.24512 -2.47826,28.1086 -5.94991,30.8301 -16.77658,55.46361 -35.0795,79.815 -7.04911,9.37859 -22.06938,25.04506 -30.60875,31.92559 -26.92775,21.69682 -58.06627,35.33649 -92.00502,40.30117 -11.39614,1.66707 -38.56624,2.0139 -48.42463,0.61816 z m 47.62703,-8.19925 c 55.75552,-8.40661 103.49153,-41.266 131.20319,-90.31457 11.41711,-20.20783 18.76043,-43.59494 21.56167,-68.66979 C 399.2486,178.34373 393.3292,144.6496 378.56038,114.1304 361.11426,78.078665 332.01428,48.969116 295.59999,31.142745 276.61001,21.846326 257.09539,16.33334 235.02275,14.02934 220.25377,12.487715 214.17593,12.487279 200.2763,14.026847 167.35621,17.67318 141.3472,27.304909 115.01783,45.600001 104.31802,53.034819 86.509238,69.658552 78.180427,79.98614 63.633341,98.024282 52.562086,119.36867 45.740982,142.5265 c -5.273789,17.90465 -6.946246,30.3012 -6.890488,51.0735 0.04967,18.50468 1.480745,28.97897 6.423197,47.01254 11.402252,41.6035 36.990379,76.57859 74.726309,102.13955 7.84039,5.31079 29.60863,16.14481 38.4,19.11162 11.50249,3.88173 32.89368,8.56345 44,9.62994 6.96308,0.66863 32.48941,-0.23618 40.42703,-1.43298 z M 139.81262,288.05791 137.2,285.71582 v -15.45791 -15.4579 l -3.4,-0.246 c -2.13087,-0.15417 -3.4,-0.63433 -3.4,-1.28634 0,-0.57828 1.51008,-1.35834 3.4,-1.75633 l 3.4,-0.71599 0.61337,-6.77105 c 0.62588,-6.90903 1.31336,-8.65843 2.99433,-7.61954 0.68354,0.42246 0.79257,2.53797 0.39176,7.60205 l -0.55535,7.0167 6.41432,0.29129 c 3.52787,0.16021 6.659,0.53597 6.95805,0.83502 1.404,1.40399 -0.99255,2.25019 -6.37286,2.25019 h -5.86195 l -0.54245,3.61728 c -0.51606,3.44133 0.0686,22.88631 0.7963,26.48064 0.47939,2.3681 4.52924,3.07858 8.04329,1.41106 2.92648,-1.38871 5.34591,-1.02545 4.68261,0.70306 -0.74888,1.95156 -4.95317,3.78796 -8.67224,3.78796 -2.92265,0 -4.19254,-0.47386 -6.27656,-2.3421 z m 28.49822,0.81828 c -1.36903,-0.83482 -3.34903,-2.72347 -4.4,-4.19702 C 162.04938,282.06925 162,281.5865 162,266.00001 c 0,-15.46667 0.0534,-16 1.6,-16 1.52669,0 1.62262,0.69793 2.0938,15.23436 0.5774,17.81317 1.1474,19.71454 6.38015,21.28231 4.16945,1.2492 9.53113,-0.0361 13.52605,-3.24247 l 2.8,-2.24732 0.4,-15.51344 c 0.3828,-14.84678 0.46876,-15.51344 2,-15.51344 1.55225,0 1.60638,0.60462 1.81386,20.26132 0.2006,19.00457 0.12617,20.24472 -1.2,19.99345 -0.93706,-0.17753 -1.49841,-1.14248 -1.66455,-2.86133 -0.13788,-1.4264 -0.55171,-2.59344 -0.91961,-2.59344 -0.3679,0 -2.54127,1.26 -4.8297,2.8 -3.53708,2.38028 -4.83828,2.79955 -8.6804,2.797 -3.02579,-0.002 -5.34232,-0.50466 -7.00876,-1.52082 z m 37.69203,-0.22303 c -0.24987,-1.01923 -0.35272,-10.13315 -0.22859,-20.25315 0.19287,-15.72191 0.40037,-18.4 1.42572,-18.4 0.79412,0 1.27807,0.94703 1.43083,2.8 0.42952,5.21014 0.81745,5.32548 4.39927,1.30787 2.98475,-3.3479 3.82705,-3.82587 7.36989,-4.18215 4.64097,-0.4667 6.39544,0.36807 5.65786,2.692 -0.43167,1.36007 -1.22585,1.62597 -4.99066,1.67094 -4.76422,0.0569 -6.17451,0.85535 -9.32952,5.28198 -1.51775,2.12948 -1.73279,3.79699 -2.11366,16.39098 -0.37516,12.40483 -0.58204,14.05054 -1.79543,14.2825 -0.88926,0.17001 -1.53114,-0.38933 -1.82571,-1.59097 z m 33.39712,0.15561 c -1.43,-0.87188 -2.66317,-1.68054 -2.74039,-1.797 -0.0772,-0.11648 -0.34721,-7.41176 -0.6,-16.21176 l -0.45961,-16 -2.8,-0.25704 c -5.70029,-0.52328 -4.88974,-3.30655 0.96998,-3.33072 l 2.96998,-0.0122 0.23002,-7.4 c 0.18471,-5.94221 0.46642,-7.4 1.43002,-7.4 0.9636,0 1.24532,1.45779 1.43003,7.4 l 0.23001,7.4 4.56999,0.0109 c 5.67721,0.0136 8.16997,0.64897 8.16997,2.08242 0,0.85004 -1.48425,1.1067 -6.4,1.1067 h -6.4 v 13.94792 c 0,7.67136 0.34727,14.8613 0.77171,15.97765 1.03313,2.71736 4.23359,3.45436 7.73985,1.78234 3.49768,-1.66792 4.28844,-1.64587 4.28844,0.1196 0,3.74237 -8.73568,5.42514 -13.4,2.58125 z m 21.961,1.08556 c -0.30855,-0.30855 -0.561,-13.46099 -0.561,-29.22766 V 232 h 2.00998 2.00998 l -0.20998,28.98925 c -0.18419,25.4291 -0.36214,29.01852 -1.44898,29.22765 -0.68146,0.13113 -1.49146,-0.014 -1.8,-0.32257 z m 25.439,-0.76523 c -6.89662,-3.79081 -10.106,-9.2652 -10.6361,-18.1425 -0.4687,-7.84914 1.01119,-12.05374 5.79441,-16.46275 8.05727,-7.42693 19.39991,-6.2653 24.78602,2.53841 1.69279,2.76691 2.37608,4.9223 2.4093,7.6 l 0.0464,3.73775 -14.13478,0.4 c -7.77413,0.22 -14.41596,0.68183 -14.75963,1.02629 -0.98322,0.98551 1.04071,9.17042 2.92036,11.81014 0.9351,1.31324 2.77042,2.94114 4.07847,3.61756 3.59151,1.85725 11.19522,1.62777 15.52564,-0.46855 3.47021,-1.6799 5.96994,-1.69844 5.96994,-0.0442 0,0.43527 -1.61968,1.74059 -3.59929,2.90072 -4.68531,2.74577 -14.64632,3.55086 -18.40071,1.48721 z m 9.4,-23.52029 c 8.91331,-0.008 9.4,-0.093 9.4,-1.6345 0,-3.13173 -2.27942,-7.03469 -5.31187,-9.09529 -6.53041,-4.43753 -15.94642,-1.32157 -19.14587,6.33579 -1.75677,4.20454 -1.04403,5.51064 2.67192,4.89637 1.6422,-0.27146 7.21582,-0.49753 12.38582,-0.50237 z M 197.33333,205.86667 C 197.04,205.57334 196.8,198.53 196.8,190.2148 v -15.11856 l -12.4,0.56714 -12.4,0.56714 V 173.31526 170.4 h 12.44512 12.44514 L 196.64512,141 c -0.26501,-31.78527 -0.21999,-31.45875 -4.7028,-34.10681 -1.22928,-0.72616 -3.94142,-1.29319 -6.18536,-1.29319 -3.2412,0 -4.78226,0.52899 -8.15696,2.8 -2.28844,1.54 -4.29536,2.8 -4.45985,2.8 -0.16449,0 -0.83495,-1.03629 -1.48993,-2.30287 -1.44136,-2.7873 -0.81807,-3.51479 5.94978,-6.94449 9.01732,-4.569646 19.98777,-2.44995 24.05272,4.64743 L 203.6,110 l 0.23588,30.16823 0.23588,30.16822 6.56412,0.23178 c 6.50082,0.22954 6.56655,0.25299 6.81725,2.43177 l 0.25314,2.2 h -6.40592 c -4.17531,0 -6.61582,0.33962 -7.00871,0.97532 -0.33152,0.53642 -0.8555,6.79045 -1.16439,13.89784 -0.30889,7.10739 -0.97155,13.6885 -1.47258,14.62468 -0.87779,1.64017 -3.21723,2.27294 -4.32134,1.16883 z m 48.66666,-1.41931 c -4.63957,-1.71166 -8.03557,-5.77119 -9.14985,-10.93758 C 236.23067,190.6376 235.96367,180.12696 236.04966,162 l 0.12905,-27.2 h -5.88936 c -6.69192,0 -7.88936,-0.49285 -7.88936,-3.24721 0,-1.90135 0.16332,-1.95311 6.2,-1.96504 3.41,-0.006 6.60408,-0.27673 7.09794,-0.6 0.56263,-0.36828 1.1601,-5.96492 1.6,-14.98775 l 0.70206,-14.399998 h 2.7316 2.7316 L 243.27394,114.6 l -0.18925,15 h 12.45766 12.45764 v 2.3067 c 0,3.12183 -1.37779,3.39021 -14.2,2.76596 l -10.6,-0.51606 0.0584,25.9217 c 0.0322,14.25694 0.33516,27.87075 0.67341,30.25292 1.39757,9.84241 10.78321,11.92461 21.05707,4.67151 1.15247,-0.81361 1.68206,-0.68735 3.11116,0.74175 0.94725,0.94726 1.53065,2.22164 1.29645,2.83196 -0.2342,0.61032 -2.66916,2.30536 -5.41101,3.76676 -5.94611,3.16924 -12.89493,3.9822 -17.98548,2.10416 z"
       id="path38" />
  </g>
</svg>
